<svg xmlns="http://www.w3.org/2000/svg" id="SvgjsSvg179048" width="4096" height="1674.2285355553158" version="1.1" xmlns:xlink="http://www.w3.org/1999/xlink" xmlns:svgjs="http://svgjs.com/svgjs"><defs id="SvgjsDefs179049"></defs><g id="SvgjsG179050" transform="translate(328, 328.00000000000006) scale(34.4)" opacity="1"><defs id="SvgjsDefs77200"><linearGradient id="SvgjsLinearGradientrC5hXRlyF" gradientUnits="userSpaceOnUse" x1="-69.385" y1="46.145000000000024" x2="68.855" y2="-92.09500000000001"><stop id="SvgjsStop77203" stop-color="#9514af" offset="0"></stop><stop id="SvgjsStop77204" stop-color="#000000" offset="1"></stop></linearGradient><linearGradient id="SvgjsLinearGradientNREQnQBEXA" gradientUnits="userSpaceOnUse" x1="-55.5175" y1="28.672500000000003" x2="57.40749999999999" y2="-84.25250000000001"><stop id="SvgjsStop77207" stop-color="#322f33" offset="0"></stop><stop id="SvgjsStop77208" stop-color="#9514af" offset="1"></stop></linearGradient><linearGradient id="SvgjsLinearGradientnPc64VeTqb" gradientUnits="userSpaceOnUse" x1="9.14938480673168" y1="91.52482594809138" x2="93.47596163628616" y2="7.198249118536895"><stop id="SvgjsStop77211" stop-color="#f8e71c" offset="0"></stop><stop id="SvgjsStop77212" stop-color="#d0021b" offset="1"></stop></linearGradient></defs><g id="SvgjsG77201" transform="scale(0.20808026274351016)" opacity="1"><g id="SvgjsG77205" class="text" transform="translate(104.04, 110.01595527128126) scale(1)" light-content="false" fill="url(#SvgjsLinearGradientrC5hXRlyF)"><path d="M-84.33 0.56C-82.45 -2.87 -81.51 -6.93 -81.51 -11.64L-81.51 -55.27L-92.47 -55.27L-92.47 -11.86C-92.47 -3.75 -96.33 0.5 -104.04 0.9L-104.04 11.49C-99.58 11.34 -95.65 10.34 -92.25 8.49C-88.84 6.63 -86.2 3.99 -84.33 0.56Z M-42.76 -45.88C-39.21 -45.88 -35.03 -44.55 -30.22 -41.9L-26.09 -50.23C-28.7 -51.94 -31.37 -53.25 -34.13 -54.18C-36.88 -55.1 -40.31 -55.57 -44.42 -55.57C-49.62 -55.32 -53.79 -53.74 -56.92 -50.84C-60.05 -47.93 -61.61 -44.1 -61.61 -39.35C-61.61 -36.09 -60.85 -33.39 -59.32 -31.24C-57.79 -29.08 -55.98 -27.43 -53.88 -26.28C-51.77 -25.13 -49.15 -23.93 -45.99 -22.68C-40.64 -20.57 -37.96 -18.1 -37.96 -15.24C-37.96 -13.04 -38.81 -11.45 -40.51 -10.47C-42.21 -9.5 -44.21 -9.01 -46.52 -9.01C-48.47 -9.01 -50.67 -9.46 -53.13 -10.36C-55.58 -11.26 -57.76 -12.41 -59.66 -13.82L-64.46 -5.33C-61.66 -3.33 -58.63 -1.84 -55.38 -0.86C-52.12 0.11 -48.85 0.6 -45.54 0.6C-41.59 0.6 -38.18 -0.11 -35.33 -1.54C-32.48 -2.97 -30.31 -4.89 -28.83 -7.32C-27.36 -9.75 -26.62 -12.39 -26.62 -15.24C-26.62 -18.55 -27.23 -21.28 -28.46 -23.43C-29.69 -25.58 -31.22 -27.27 -33.08 -28.5C-34.93 -29.72 -37.16 -30.81 -39.76 -31.76C-42.96 -32.96 -45.53 -34.23 -47.46 -35.55C-49.38 -36.88 -50.35 -38.42 -50.35 -40.17C-50.35 -42.07 -49.68 -43.5 -48.36 -44.45C-47.03 -45.4 -45.17 -45.88 -42.76 -45.88Z M-8.03 -41.6C-10.56 -37.24 -11.83 -32.56 -11.83 -27.56C-11.83 -22.45 -10.56 -17.75 -8.03 -13.44C-5.51 -9.14 -2.09 -5.72 2.22 -3.19C6.52 -0.66 11.23 0.6 16.33 0.6C21.39 0.6 26.08 -0.66 30.41 -3.19C34.74 -5.72 38.2 -9.14 40.77 -13.44C43.35 -17.75 44.64 -22.45 44.64 -27.56C44.64 -32.56 43.35 -37.24 40.77 -41.6C38.2 -45.95 34.74 -49.42 30.41 -52C26.08 -54.58 21.39 -55.87 16.33 -55.87C11.28 -55.87 6.58 -54.58 2.25 -52C-2.08 -49.42 -5.51 -45.95 -8.03 -41.6ZM1.73 -18.7C0.2 -21.4 -0.56 -24.35 -0.56 -27.56C-0.56 -30.86 0.19 -33.87 1.69 -36.57C3.19 -39.27 5.23 -41.41 7.81 -42.99C10.39 -44.57 13.25 -45.35 16.41 -45.35C19.56 -45.35 22.43 -44.57 25 -42.99C27.58 -41.41 29.62 -39.27 31.12 -36.57C32.63 -33.87 33.38 -30.86 33.38 -27.56C33.38 -24.3 32.65 -21.34 31.2 -18.66C29.75 -15.98 27.75 -13.85 25.19 -12.28C22.64 -10.7 19.81 -9.91 16.71 -9.91C13.5 -9.91 10.59 -10.7 7.96 -12.28C5.33 -13.85 3.25 -15.99 1.73 -18.7Z M86.62 -10.81L90.9 0L103.51 0L78.58 -57.44L77.98 -57.44L53.05 0L63.79 0L68.29 -10.81ZM83.01 -19.97L72.12 -19.97L77.68 -33.41Z"></path></g><g id="SvgjsG77209" class="text" transform="translate(395.10808796350466, 108.75595527128127) scale(1)" light-content="false" fill="url(#SvgjsLinearGradientNREQnQBEXA)"><path d="M-39.68 -2.76C-37.49 -3.74 -35.97 -4.68 -35.11 -5.59L-35.11 -29.07L-55.8 -29.07L-55.8 -18.5L-46.21 -18.5L-46.21 -11.78C-47.87 -10.82 -50.42 -10.34 -53.84 -10.34C-57.41 -10.34 -60.6 -11.02 -63.39 -12.38C-66.18 -13.74 -68.36 -15.69 -69.92 -18.24C-71.48 -20.78 -72.26 -23.76 -72.26 -27.18C-72.26 -33.12 -70.66 -37.6 -67.47 -40.62C-64.27 -43.64 -59.65 -45.16 -53.61 -45.16C-51.9 -45.16 -49.77 -44.82 -47.23 -44.14C-44.69 -43.46 -42.69 -42.71 -41.23 -41.91L-37.68 -52.1C-39.94 -53.31 -42.56 -54.29 -45.53 -55.05C-48.5 -55.8 -51.67 -56.18 -55.05 -56.18C-60.28 -56.18 -65.06 -55.06 -69.39 -52.82C-73.72 -50.58 -77.17 -47.21 -79.74 -42.7C-82.31 -38.2 -83.59 -32.7 -83.59 -26.2C-83.59 -21.02 -82.38 -16.4 -79.97 -12.35C-77.55 -8.29 -74.11 -5.12 -69.66 -2.83C-65.2 -0.54 -60.03 0.6 -54.14 0.6C-51.98 0.6 -49.57 0.29 -46.93 -0.34C-44.29 -0.97 -41.87 -1.77 -39.68 -2.76Z M22.8 -55.58L-15.1 -55.58L-15.1 0L23.86 0L23.86 -10.57L-4.15 -10.57L-4.15 -22.58L19.71 -22.58L19.71 -33.15L-4.15 -33.15L-4.15 -45L22.8 -45Z M72.72 0L85.48 0L72.57 -20.16C75.54 -21.87 77.74 -24.23 79.17 -27.22C80.61 -30.22 81.32 -33.43 81.32 -36.85C81.32 -42.64 79.42 -47.21 75.62 -50.55C71.82 -53.9 66.47 -55.58 59.58 -55.58L42.74 -55.58L42.74 0L53.69 0L53.69 -17.67L61.01 -17.67ZM53.69 -28.24L53.69 -45L61.54 -45C64.86 -45 67.1 -44.09 68.26 -42.25C69.42 -40.41 70 -38.48 70 -36.47C70 -34.46 69.32 -32.58 67.96 -30.85C66.6 -29.11 64.44 -28.24 61.47 -28.24Z"></path></g><g id="SvgjsG77213" class="I5bBT2QK5" transform="translate(182.2104792712924, -13.19217808850598) scale(1.7081675629296897)" light-content="false" fill="url(#SvgjsLinearGradientnPc64VeTqb)"><path d="M33.329 27.033c-18.15-.593-14.573 7.76-13.865 10.29-.44-3.278-3.639-10.295 13.865-10.29z"></path><path d="M25.109 26.893c-2.299.229-6.305-2.361-8.604-1.954-.6 2.081.373 4.773 1.672 6.421.372-1.568 2.018-3.966 6.932-4.467zm8.12 15.195c-6.406 7.025-5.873 17.649-5.171 21.269-2.392 2.642-6.226 6.506-9.815 13.112-18.197 5.393-3.606 9.323-9.593 13.194-.736.743 14.831 2.855 9.443-5.086-3.545.572-7.728.308-7.46-2.412-.134-2.38 6.983-4.383 9.918-5.175.934-3.967 6.272-10.992 9.075-13.599-1.469-3.06-1.867-15.1 3.603-21.303m4.13-13.712c4.138 2.719.828 8.447-.248 9.972.995-2.076 3.927-6.576.248-9.972z"></path><path d="M31.505 88.664c-9.057.429-10.31-1.395 1.866-4.732-2.994.354-7.342 1.33-8.418 1.564-5.707 1.253-6.408 4.441.098 5.215 4.347.446 9.26.599 19.473-1.232 5.633-1.288 4.374-7.014-1.946-19.11 7.287 16.363-6.54 17.888-11.073 18.295zM59.54 68.688c1.385.92 2.57 1.883 5.854 1.131l-1.775 4.439c-2.428-.854-3.768-1.855-5.141-3.838l1.062-1.732zm6.734-7.15c-1.238.376-3.613.705-5.475-.498l-.25 4.3c1.859 1.281 3.779.639 5.725-.188v-3.614zm-.795-6.999c-1.508-.226-3.812-.527-5.672.226l.742 3.763c2.395 1.58 4.242.346 5.482-.331l-.552-3.658zm-1.597-7.752c-1.238-.076-4.5-.275-6.094.178l1.045 3.81c2.746 2.333 4.52.075 5.76-.827l-.711-3.161zm-8.506-8.505c1.596-.602 5.051-.527 6.557-.151l.725 3.478c-1.152.904-3.461 3.035-6.475.023l-.807-3.35zm5.492-9.108c-.973.225-4.771 1.869-7.254-.313l.699 5.046c2.393.829 5.227.686 6.912-.066l-.357-4.667zm-6.469-9.559c3.9.602 5.584 1.129 7.533 1.807l-.885 4.215c-1.867 1.411-2.812 2.015-7.537.526l.889-6.548zm.622-2.032c2.127-.601 6.383.453 8.066 1.43l2.479-2.709c-3.01-1.129-5.227-2.634-5.496-5.795-1.729 1.028-4.577 5.409-5.049 7.074zm13.607-9.86c.975 1.732 2.127 4.293 2.039 7.002l-3.061.374c-.709-1.58-.266-2.708-5.674-5.72l6.696-1.656zm6.947 8.33c1.064-1.28 2.045-5.093 2.225-5.845l-4.344-1.731c.266 1.58.682 4.939-.029 6.746l2.148.83zm5.612 3.562c-1.771-2.935 1.664-4.892 3.17-4.892l-2.746-2.182c-.977.978-3.059 1.76-3.592 4.921l3.168 2.153zm10.164 2.012c-3.459-.979-6.213-2.175-4.885 3.921l-1.742-2.014c-4.076-8.054 2.645-5.502 3.885-4.977l2.742 3.07m2.248 2.853c1.434 2.89-1.104 6.294-5.5 2.717 1.109-3.637 2.283-4.969 5.5-2.717M28.297 39.917c.261 2.935-9.005 7.807-11.973 3.475-.958-1.932 6.226-7.338 3.474-8.761 3.934 1.509-1.35 6.75-1.088 7.788.785 1.777 9.036.91 9.587-2.502zm7.924-6.584c4.91-3.864-1.194-7.625-2.273-7.929-3.335 3.333-4.93 4.069-3.83 7.521 3.247-5.862 9.793-5.047 6.103.408z"></path><path d="M56.304 67.806C45.17 57.131 43.5 61.424 41.946 63.256 26.024 83.69 15.249 83.078 12.736 82.874c4.364-.046 22.166-7.974 24.172-27.758 2.007-19.783 16.798 5.617 19.396 12.69z"></path></g></g></g></svg>