<svg xmlns="http://www.w3.org/2000/svg" id="SvgjsSvg180116" width="4096" height="1272.6196348118451" version="1.1" xmlns:xlink="http://www.w3.org/1999/xlink" xmlns:svgjs="http://svgjs.com/svgjs"><defs id="SvgjsDefs180117"></defs><g id="SvgjsG180118" transform="translate(328, 328.00000000000006) scale(34.4)" opacity="1"><defs id="SvgjsDefs77964"><linearGradient id="SvgjsLinearGradient4VmMdwpbq" gradientUnits="userSpaceOnUse" x1="-66.69999999999999" y1="34.45000000000002" x2="68.96" y2="-101.21"><stop id="SvgjsStop77968" stop-color="#c376d3" offset="0"></stop><stop id="SvgjsStop77969" stop-color="#9514af" offset="1"></stop></linearGradient></defs><g id="SvgjsG77965" transform="scale(0.21645021645021645)" opacity="1"><g id="SvgjsG77966" class="text" transform="translate(124.98, 69.01) scale(1)" light-content="false" fill="#000000"><path d="M-101.3 0.68C-99.04 -3.44 -97.92 -8.33 -97.92 -13.98L-97.92 -66.39L-111.09 -66.39L-111.09 -14.25C-111.09 -4.51 -115.72 0.6 -124.98 1.08L-124.98 13.8C-119.63 13.62 -114.91 12.42 -110.82 10.19C-106.73 7.97 -103.55 4.8 -101.3 0.68Z M-51.37 -55.11C-47.1 -55.11 -42.08 -53.52 -36.31 -50.33L-31.35 -60.35C-34.47 -62.39 -37.69 -63.97 -41 -65.08C-44.31 -66.19 -48.42 -66.75 -53.36 -66.75C-59.61 -66.45 -64.62 -64.56 -68.37 -61.07C-72.13 -57.58 -74.01 -52.98 -74.01 -47.27C-74.01 -43.36 -73.1 -40.11 -71.26 -37.53C-69.43 -34.94 -67.25 -32.95 -64.72 -31.57C-62.2 -30.19 -59.04 -28.75 -55.25 -27.24C-48.82 -24.72 -45.6 -21.74 -45.6 -18.31C-45.6 -15.67 -46.62 -13.76 -48.67 -12.58C-50.71 -11.41 -53.12 -10.82 -55.88 -10.82C-58.23 -10.82 -60.87 -11.37 -63.82 -12.45C-66.77 -13.53 -69.38 -14.91 -71.67 -16.6L-77.44 -6.4C-74.07 -4 -70.43 -2.21 -66.53 -1.04C-62.62 0.14 -58.68 0.72 -54.71 0.72C-49.96 0.72 -45.87 -0.14 -42.44 -1.85C-39.01 -3.56 -36.41 -5.88 -34.64 -8.79C-32.86 -11.71 -31.98 -14.88 -31.98 -18.31C-31.98 -22.28 -32.71 -25.56 -34.19 -28.14C-35.66 -30.73 -37.51 -32.76 -39.74 -34.23C-41.96 -35.71 -44.64 -37.01 -47.76 -38.16C-51.61 -39.6 -54.69 -41.12 -57.01 -42.71C-59.32 -44.31 -60.48 -46.15 -60.48 -48.26C-60.48 -50.54 -59.69 -52.26 -58.09 -53.4C-56.5 -54.54 -54.26 -55.11 -51.37 -55.11Z M-9.65 -49.97C-12.69 -44.74 -14.21 -39.12 -14.21 -33.11C-14.21 -26.97 -12.69 -21.32 -9.65 -16.15C-6.61 -10.97 -2.51 -6.87 2.66 -3.83C7.83 -0.8 13.49 0.72 19.62 0.72C25.69 0.72 31.33 -0.8 36.53 -3.83C41.73 -6.87 45.88 -10.97 48.98 -16.15C52.08 -21.32 53.63 -26.97 53.63 -33.11C53.63 -39.12 52.08 -44.74 48.98 -49.97C45.88 -55.21 41.73 -59.37 36.53 -62.47C31.33 -65.56 25.69 -67.11 19.62 -67.11C13.55 -67.11 7.91 -65.56 2.71 -62.47C-2.5 -59.37 -6.61 -55.21 -9.65 -49.97ZM2.07 -22.46C0.24 -25.71 -0.68 -29.26 -0.68 -33.11C-0.68 -37.07 0.23 -40.68 2.03 -43.93C3.83 -47.18 6.28 -49.75 9.38 -51.64C12.48 -53.54 15.92 -54.48 19.71 -54.48C23.5 -54.48 26.94 -53.54 30.04 -51.64C33.14 -49.75 35.59 -47.18 37.39 -43.93C39.19 -40.68 40.1 -37.07 40.1 -33.11C40.1 -29.2 39.22 -25.63 37.48 -22.42C35.74 -19.2 33.33 -16.64 30.26 -14.75C27.2 -12.85 23.8 -11.91 20.07 -11.91C16.22 -11.91 12.72 -12.85 9.56 -14.75C6.4 -16.64 3.91 -19.21 2.07 -22.46Z M104.05 -12.99L109.19 0L124.35 0L94.4 -69.01L93.68 -69.01L63.73 0L76.63 0L82.04 -12.99ZM99.72 -23.99L86.64 -23.99L93.32 -40.14Z"></path></g><g id="SvgjsG77970" class="text" transform="translate(359.3215991769375, 67.49) scale(1)" light-content="false" fill="url(#SvgjsLinearGradient4VmMdwpbq)"><path d="M-47.67 -3.31C-45.04 -4.49 -43.21 -5.62 -42.18 -6.71L-42.18 -34.92L-67.03 -34.92L-67.03 -22.22L-55.51 -22.22L-55.51 -14.15C-57.51 -13 -60.56 -12.43 -64.68 -12.43C-68.97 -12.43 -72.79 -13.24 -76.15 -14.88C-79.51 -16.51 -82.12 -18.85 -84 -21.91C-85.87 -24.96 -86.81 -28.54 -86.81 -32.66C-86.81 -39.79 -84.89 -45.17 -81.05 -48.8C-77.21 -52.43 -71.66 -54.24 -64.4 -54.24C-62.35 -54.24 -59.79 -53.84 -56.74 -53.02C-53.69 -52.2 -51.28 -51.31 -49.53 -50.34L-45.26 -62.59C-47.99 -64.04 -51.13 -65.22 -54.7 -66.13C-58.27 -67.03 -62.08 -67.49 -66.13 -67.49C-72.42 -67.49 -78.16 -66.14 -83.36 -63.45C-88.56 -60.76 -92.71 -56.71 -95.79 -51.3C-98.87 -45.88 -100.42 -39.28 -100.42 -31.48C-100.42 -25.25 -98.96 -19.7 -96.06 -14.83C-93.16 -9.96 -89.03 -6.15 -83.68 -3.4C-78.33 -0.65 -72.11 0.73 -65.04 0.73C-62.44 0.73 -59.55 0.35 -56.38 -0.41C-53.2 -1.16 -50.3 -2.13 -47.67 -3.31Z M27.39 -66.76L-18.14 -66.76L-18.14 0L28.66 0L28.66 -12.7L-4.99 -12.7L-4.99 -27.12L23.68 -27.12L23.68 -39.82L-4.99 -39.82L-4.99 -54.06L27.39 -54.06Z M87.35 0L102.68 0L87.17 -24.22C90.74 -26.28 93.39 -29.1 95.11 -32.7C96.83 -36.3 97.69 -40.15 97.69 -44.27C97.69 -51.22 95.41 -56.71 90.85 -60.73C86.28 -64.75 79.86 -66.76 71.57 -66.76L51.34 -66.76L51.34 0L64.49 0L64.49 -21.23L73.29 -21.23ZM64.49 -33.93L64.49 -54.06L73.93 -54.06C77.92 -54.06 80.61 -52.96 82 -50.75C83.39 -48.55 84.09 -46.23 84.09 -43.81C84.09 -41.39 83.27 -39.14 81.64 -37.06C80.01 -34.97 77.41 -33.93 73.84 -33.93Z"></path></g></g></g></svg>